<?xml version="1.0" encoding="UTF-8" standalone="no"?>
<svg width="1020px" height="804px" viewBox="0 0 1020 804" version="1.1" xmlns="http://www.w3.org/2000/svg" xmlns:xlink="http://www.w3.org/1999/xlink" xmlns:sketch="http://www.bohemiancoding.com/sketch/ns">
    <!-- Generator: Sketch 3.1 (8751) - http://www.bohemiancoding.com/sketch -->
    <title>Business Model Canvas 2</title>
    <desc>Created with Sketch.</desc>
    <defs></defs>
    <g id="Page-1" stroke="none" stroke-width="1" fill="none" fill-rule="evenodd" sketch:type="MSPage">
        <g id="Canvas" sketch:type="MSLayerGroup" transform="translate(10.000000, 12.000000)">
            <rect id="Rectangle-1" stroke="#4A4A4A" stroke-width="3" fill="#FFFFFF" sketch:type="MSShapeGroup" x="0" y="70" width="1000" height="700"></rect>
            <path d="M2.5,572.5 L996.502014,572.5" id="Line" stroke="#4A4A4A" stroke-width="3" stroke-linecap="square" sketch:type="MSShapeGroup"></path>
            <path d="M200.495567,341.25 L400.495567,341.25" id="Line" stroke="#4A4A4A" stroke-width="3" stroke-linecap="square" sketch:type="MSShapeGroup"></path>
            <path d="M600.495567,339.25 L800.495567,339.25" id="Line" stroke="#4A4A4A" stroke-width="3" stroke-linecap="square" sketch:type="MSShapeGroup"></path>
            <path d="M200.5,72.5 L200.5,572.5" id="Line" stroke="#4A4A4A" stroke-width="3" stroke-linecap="square" sketch:type="MSShapeGroup"></path>
            <path d="M400.5,72.5 L400.5,572.5" id="Line" stroke="#4A4A4A" stroke-width="3" stroke-linecap="square" sketch:type="MSShapeGroup"></path>
            <path d="M499.5,572.5 L498.52011,768.478008" id="Line" stroke="#4A4A4A" stroke-width="3" stroke-linecap="square" sketch:type="MSShapeGroup"></path>
            <path d="M600.166667,72.5 L600.5,572.5" id="Line" stroke="#4A4A4A" stroke-width="3" stroke-linecap="square" sketch:type="MSShapeGroup"></path>
            <path d="M800.5,73.5 L801.497996,572.49802" id="Line" stroke="#4A4A4A" stroke-width="3" stroke-linecap="square" sketch:type="MSShapeGroup"></path>
            <text id="Key" sketch:type="MSTextLayer" font-family="Georgia" font-size="16" font-weight="normal" fill="#4A4A4A">
                <tspan x="20" y="106">Key</tspan>
                <tspan x="20" y="125">Partners</tspan>
            </text>
            <text id="Key" sketch:type="MSTextLayer" font-family="Georgia" font-size="16" font-weight="normal" fill="#4A4A4A">
                <tspan x="220" y="106">Key</tspan>
                <tspan x="220" y="125">Activities</tspan>
            </text>
            <text id="Cost" sketch:type="MSTextLayer" font-family="Georgia" font-size="16" font-weight="normal" fill="#4A4A4A">
                <tspan x="20" y="606">Cost</tspan>
                <tspan x="20" y="625">Structure</tspan>
            </text>
            <text id="Revenue" sketch:type="MSTextLayer" font-family="Georgia" font-size="16" font-weight="normal" fill="#4A4A4A">
                <tspan x="519" y="606">Revenue</tspan>
                <tspan x="519" y="625">Streams</tspan>
            </text>
            <text id="Key" sketch:type="MSTextLayer" font-family="Georgia" font-size="16" font-weight="normal" fill="#4A4A4A">
                <tspan x="219" y="377">Key</tspan>
                <tspan x="219" y="396">Resources</tspan>
            </text>
            <text id="Value" sketch:type="MSTextLayer" font-family="Georgia" font-size="16" font-weight="normal" fill="#4A4A4A">
                <tspan x="420" y="99">Value</tspan>
                <tspan x="420" y="118">Proposition</tspan>
            </text>
            <text id="Customer" sketch:type="MSTextLayer" font-family="Georgia" font-size="16" font-weight="normal" fill="#4A4A4A">
                <tspan x="619" y="93">Customer</tspan>
                <tspan x="619" y="112">Relationships</tspan>
            </text>
            <text id="Channels" sketch:type="MSTextLayer" font-family="Georgia" font-size="16" font-weight="normal" fill="#4A4A4A">
                <tspan x="619" y="369">Channels</tspan>
            </text>
            <text id="Customer" sketch:type="MSTextLayer" font-family="Georgia" font-size="16" font-weight="normal" fill="#4A4A4A">
                <tspan x="813" y="93">Customer</tspan>
                <tspan x="813" y="112">Segments</tspan>
            </text>
            <g id="compromise1" transform="translate(150.000000, 81.000000)" fill="#4A4A4A" sketch:type="MSShapeGroup">
                <path d="M26.9671429,5.29306977 C24.3257143,5.29306977 21.8685714,6.10339535 19.8242857,7.4875814 C18.5857143,6.64913953 17.1914286,6.03418605 15.7007143,5.66939535 L16.4921429,4.37316279 C16.7135714,4.01413953 16.7135714,3.39197674 16.4921429,3.03295349 L15.1692857,0.808162791 C14.9485714,0.449139535 14.4292857,0 14.01,0 L11.2792857,0 C10.86,0 10.3407143,0.449139535 10.1192857,0.808162791 L8.79642857,3.11225581 C8.575,3.47127907 8.575,4.0537907 8.79642857,4.41281395 L9.58357143,5.6895814 C3.98857143,7.09467442 -0.176428571,12.193814 -0.176428571,18.269814 C-0.176428571,25.4250465 5.59142857,31.2465581 12.6807143,31.2465581 C15.3221429,31.2465581 17.7792857,30.4362326 19.8235714,29.0520465 C21.8678571,30.4362326 24.325,31.2465581 26.9664286,31.2465581 C34.0557143,31.2465581 39.8235714,25.4250465 39.8235714,18.269814 C39.8235714,11.1145814 34.0564286,5.29306977 26.9671429,5.29306977 L26.9671429,5.29306977 Z M19.8242857,24.2499302 C18.4871429,22.6256744 17.6814286,20.5414651 17.6814286,18.269814 C17.6814286,15.9981628 18.4871429,13.9139535 19.8242857,12.2896977 C21.1614286,13.9139535 21.9671429,15.9981628 21.9671429,18.269814 C21.9671429,20.5414651 21.1614286,22.6256744 19.8242857,24.2499302 L19.8242857,24.2499302 Z M12.6814286,27.641907 C7.56142857,27.641907 3.39571429,23.4374419 3.39571429,18.269814 C3.39571429,13.102186 7.56142857,8.89772093 12.6814286,8.89772093 C14.2642857,8.89772093 15.7542857,9.30144186 17.06,10.0093953 C15.2185714,12.255093 14.11,15.1344884 14.11,18.269814 C14.11,21.4051395 15.2185714,24.2845349 17.06,26.5302326 C15.7542857,27.238186 14.2642857,27.641907 12.6814286,27.641907 L12.6814286,27.641907 Z M26.9671429,27.641907 C25.3842857,27.641907 23.8942857,27.238186 22.5885714,26.5302326 C24.43,24.2845349 25.5385714,21.4051395 25.5385714,18.269814 C25.5385714,15.1344884 24.43,12.255093 22.5885714,10.0093953 C23.8942857,9.30144186 25.3842857,8.89772093 26.9671429,8.89772093 C32.0871429,8.89772093 36.2528571,13.102186 36.2528571,18.269814 C36.2528571,23.4374419 32.0871429,27.641907 26.9671429,27.641907 L26.9671429,27.641907 Z" id="Shape"></path>
            </g>
            <g id="person128" transform="translate(351.000000, 81.000000)" fill="#4A4A4A" sketch:type="MSShapeGroup">
                <g id="Group">
                    <path d="M20.3596748,15.7059569 L0.00569105691,15.7059569 L0.00569105691,17.8998017 L1.74585366,17.8998017 L1.74585366,37.8465259 L16.1356098,37.8465259 L16.1356098,17.8998017 L20.3596748,17.8998017 L20.3596748,15.7059569 Z" id="Shape"></path>
                    <path d="M30.8852033,25.6662974 C30.8889431,25.6662974 30.8956911,25.6687543 30.9000813,25.6687543 C33.5544715,25.7466379 35.0695122,24.9497026 35.3044715,22.8313664 L36.3812195,13.077569 C36.5820325,11.2602845 35.1434959,9.87361207 33.7064228,9.34308621 L33.6947967,9.33931897 C33.6947967,9.33931897 33.1823577,9.17143103 32.7137398,9.10706034 C32.2252846,9.04146121 31.7444715,9.13015517 31.7444715,9.13015517 C30.6218699,9.26200862 29.5129268,10.0616466 29.5129268,10.0616466 C27.4482927,11.5429095 24.247561,11.8629612 19.9926829,11.0118103 C18.9222764,10.7948664 17.8817073,11.4987672 17.6691057,12.5766078 C17.4564228,13.654694 18.1518699,14.7022328 19.222439,14.916556 C21.0061789,15.2748534 22.6652033,15.4520776 24.1956098,15.4520776 C25.5864228,15.4520776 26.8358537,15.2969655 28.0103252,15.0018922 L28.0009756,15.1394784 L27.3147967,21.3561638 C23.7204878,21.4869526 21.4560976,22.2328664 20.5685366,23.5877629 C19.3681301,25.4289612 17.4178049,32.8519009 16.8490244,35.1290345 C16.5550407,36.3053147 17.2647154,37.4989569 18.4326016,37.7958319 C18.6102439,37.8407931 18.7895122,37.8632328 18.9660163,37.8632328 C19.9419512,37.8632328 20.8320325,37.198069 21.0804878,36.2019612 C22.0828455,32.19075 23.4677236,28.0331897 24.1000813,26.7169483 C24.6239837,25.5721983 28.0899187,25.5112672 30.8852033,25.6662974 L30.8852033,25.6662974 Z" id="Shape"></path>
                    <ellipse id="Oval" cx="32.2199187" cy="4.44739224" rx="4.41504065" ry="4.44739224"></ellipse>
                    <path d="M39.4078049,21.3519871 L39.9942276,13.6940862 C39.9957724,13.650681 39.9795935,13.6085043 39.9496748,13.5772198 C39.9196748,13.5459353 39.8784553,13.5282457 39.8352846,13.5282457 L37.4223577,13.5282457 C37.3366667,13.5282457 37.2664228,13.5965474 37.2633333,13.6828664 L36.7181301,21.3463362 C36.6463415,23.7090517 35.9552846,26.6149052 32.0156911,26.6149052 C31.9598374,26.6149052 27.659187,26.6051595 27.659187,26.6051595 L27.6591057,26.6051595 C27.6168293,26.6051595 27.5765041,26.6220302 27.5465854,26.6520043 C27.5168293,26.6820603 27.5,26.7229267 27.5,26.765431 L27.5,29.1333879 C27.5,29.2219181 27.5712195,29.2936595 27.6591057,29.2936595 L31.6139837,29.2934957 L31.6139837,34.7364224 L30.3722764,34.7364224 C28.746748,34.7364224 27.3734959,36.1738707 27.3734959,37.8751078 C27.3734959,37.9636379 27.4447154,38.0352974 27.5325203,38.0352974 L29.0988618,38.0352974 C29.186748,38.0352974 29.2579675,37.9636379 29.2579675,37.8751078 C29.2579675,37.2492543 29.7678862,36.7205302 30.371626,36.7205302 L35.5213008,36.7205302 C36.1253659,36.7205302 36.6356098,37.2492543 36.6356098,37.8751078 C36.6356098,37.9636379 36.7069106,38.0352974 36.7947154,38.0352974 L38.361626,38.0352974 C38.4494309,38.0352974 38.5206504,37.9636379 38.5206504,37.8751078 C38.5206504,36.1738707 37.1470732,34.7364224 35.5212195,34.7364224 L34.2806504,34.7364224 L34.2806504,29.0015345 C38.1639837,28.895806 39.0650407,25.0193966 39.4078049,21.3519871 L39.4078049,21.3519871 Z" id="Shape"></path>
                    <path d="M16.5531707,13.3674009 L9.09650407,13.3674009 L6.57276423,4.05125862 C6.55495935,3.98574138 6.48796748,3.94700431 6.42300813,3.96510345 L5.07731707,4.33494828 C5.04609756,4.34354741 5.0195935,4.36426724 5.00357724,4.39252155 C4.98747967,4.42085776 4.98325203,4.45435345 4.99178862,4.48580172 L7.8203252,14.9266293 C7.83479675,14.9800259 7.88300813,15.017125 7.93796748,15.017125 L16.553252,15.017125 C16.6206504,15.017125 16.6752033,14.9621724 16.6752033,14.8942802 L16.6752033,13.4901638 C16.675122,13.4223534 16.6205691,13.3674009 16.5531707,13.3674009 L16.5531707,13.3674009 Z" id="Shape"></path>
                </g>
            </g>
            <g id="businessman116" transform="translate(351.000000, 351.000000)" fill="#4A4A4A" sketch:type="MSShapeGroup">
                <g id="Group">
                    <path d="M33.999,14.7748548 C35.668,14.7748548 37.022,13.3986774 37.022,11.7017419 C37.022,10.0048065 35.6676667,8.62862903 33.999,8.62862903 C32.3273333,8.62862903 30.9733333,10.0048065 30.9733333,11.7017419 C30.9733333,13.3986774 32.3273333,14.7748548 33.999,14.7748548 L33.999,14.7748548 Z" id="Shape"></path>
                    <path d="M36.0093333,15.5227258 C35.9593333,15.4915645 35.9053333,15.468871 35.853,15.4461774 C35.5156667,15.2172097 35.137,15.0495484 34.7506667,14.9526774 L33.9986667,15.7235806 L33.2673333,14.9442097 C33.2646667,14.9445484 33.2623333,14.9455645 33.26,14.9455645 C32.873,15.0397258 32.4926667,15.2067097 32.154,15.4339839 C32.0943333,15.4590484 32.034,15.4864839 31.9756667,15.5223871 C29.6273333,16.9856129 28.279,18.1429839 27.8626667,24.9148065 C27.8223333,25.5729194 28.3156667,26.1395806 28.9613333,26.1805645 C28.9876667,26.1819194 29.012,26.1825968 29.036,26.1825968 C29.6513333,26.1825968 30.1683333,25.6962097 30.2076667,25.0638387 C30.3486667,22.7775484 30.5756667,21.2960323 30.9033333,20.2741452 L30.9033333,24.4070806 C30.9033333,24.7288548 30.964,25.0279355 31.072,25.3029677 C31.0636667,25.365629 31.057,25.428629 31.057,25.4923065 L31.0596667,36.9173226 C31.0596667,37.6963548 31.6796667,38.3277097 32.4463333,38.3277097 C33.2133333,38.3277097 33.834,37.6963548 33.834,36.9173226 L33.8333333,27.1123548 C33.888,27.1150645 33.9436667,27.1194677 33.9993333,27.1194677 C34.009,27.1194677 34.02,27.1181129 34.0303333,27.1177742 L34.0303333,36.9176613 C34.0303333,37.6966935 34.6513333,38.3280484 35.418,38.3280484 C36.185,38.3280484 36.8056667,37.6966935 36.8056667,36.9176613 L36.8066667,25.5627581 C36.9883333,25.2203226 37.0946667,24.8325 37.0946667,24.4077581 L37.0946667,20.309371 C37.4153333,21.3302419 37.6396667,22.803629 37.7786667,25.0645161 C37.817,25.6968871 38.335,26.1832742 38.9496667,26.1832742 C38.974,26.1832742 38.9993333,26.1825968 39.0233333,26.1812419 C39.6703333,26.1402581 40.1623333,25.5735968 40.1223333,24.9154839 C39.706,18.1433226 38.3573333,16.9859516 36.0093333,15.5227258 L36.0093333,15.5227258 Z M34.005,21.8064677 L33.991,21.8064677 L33.2616667,20.792371 L33.991,15.8380645 L34.005,15.8380645 L34.7346667,20.792371 L34.005,21.8064677 L34.005,21.8064677 Z" id="Shape"></path>
                    <path d="M1.96366667,17.3795323 C1.96366667,18.5846613 2.92466667,19.5611613 4.112,19.5611613 C5.29666667,19.5611613 6.25833333,18.5843226 6.25833333,17.3795323 C6.25833333,16.1747419 5.29633333,15.1975645 4.112,15.1975645 C2.92433333,15.1972258 1.96366667,16.1747419 1.96366667,17.3795323 L1.96366667,17.3795323 Z" id="Shape"></path>
                    <path d="M5.539,20.0922581 C5.50366667,20.0705806 5.465,20.0539839 5.42833333,20.0380645 C5.18833333,19.8754839 4.92,19.7562581 4.645,19.6875 L4.11166667,20.2351935 L3.59166667,19.6817419 C3.59,19.6820806 3.58833333,19.6824194 3.58633333,19.6824194 C3.312,19.7494839 3.04166667,19.8680323 2.80133333,20.0295968 C2.759,20.0475484 2.716,20.0661774 2.675,20.0922581 C1.18966667,21.0176129 0.267666667,21.7736129 -0.124333333,25.3263387 L1.552,25.3263387 C1.64466667,24.5307097 1.76433333,23.9305161 1.91333333,23.4661452 L1.91333333,25.3263387 L6.309,25.3263387 L6.309,23.4905323 C6.45433333,23.9515161 6.57066667,24.5442581 6.66233333,25.3263387 L8.337,25.3263387 C7.946,21.7736129 7.02466667,21.0179516 5.539,20.0922581 L5.539,20.0922581 Z M4.116,24.5537419 L4.10633333,24.5537419 L3.58866667,23.8333065 L4.10633333,20.3161452 L4.116,20.3161452 L4.634,23.8333065 L4.116,24.5537419 L4.116,24.5537419 Z" id="Shape"></path>
                    <path d="M10.4253333,17.3795323 C10.4253333,18.5846613 11.3866667,19.5611613 12.5733333,19.5611613 C13.7586667,19.5611613 14.7193333,18.5843226 14.7193333,17.3795323 C14.7193333,16.1747419 13.7583333,15.1975645 12.5733333,15.1975645 C11.3866667,15.1972258 10.4253333,16.1747419 10.4253333,17.3795323 L10.4253333,17.3795323 Z" id="Shape"></path>
                    <path d="M14.0006667,20.0922581 C13.9656667,20.0705806 13.927,20.0539839 13.8896667,20.0380645 C13.6503333,19.8754839 13.3816667,19.7562581 13.1073333,19.6875 L12.5733333,20.2351935 L12.0536667,19.6817419 C12.052,19.6820806 12.0503333,19.6824194 12.0483333,19.6824194 C11.7733333,19.7494839 11.5033333,19.8680323 11.2633333,20.0295968 C11.2206667,20.0475484 11.1776667,20.0661774 11.1363333,20.0922581 C9.651,21.0176129 8.72966667,21.7736129 8.337,25.3263387 L10.014,25.3263387 C10.1066667,24.5307097 10.2263333,23.9305161 10.3753333,23.4661452 L10.3753333,25.3263387 L14.7706667,25.3263387 L14.7706667,23.4905323 C14.916,23.9515161 15.0323333,24.5442581 15.1243333,25.3263387 L16.7993333,25.3263387 C16.4073333,21.7736129 15.486,21.0179516 14.0006667,20.0922581 L14.0006667,20.0922581 Z M12.5773333,24.5537419 L12.5673333,24.5537419 L12.05,23.8333065 L12.5673333,20.3161452 L12.5773333,20.3161452 L13.0956667,23.8333065 L12.5773333,24.5537419 L12.5773333,24.5537419 Z" id="Shape"></path>
                    <path d="M8.31,14.5905968 C12.2983333,14.5905968 15.5423333,11.2942742 15.5423333,7.24195161 C15.5423333,3.18929032 12.2983333,-0.107032258 8.31,-0.107032258 C4.322,-0.107032258 1.078,3.18929032 1.078,7.24195161 C1.07766667,11.2942742 4.322,14.5905968 8.31,14.5905968 L8.31,14.5905968 Z M8.31,1.84393548 C11.2396667,1.84393548 13.6226667,4.26503226 13.6226667,7.24195161 C13.6226667,10.218871 11.2396667,12.639629 8.31,12.639629 C5.381,12.639629 2.99766667,10.2185323 2.99766667,7.2416129 C2.99766667,4.26469355 5.381,1.84393548 8.31,1.84393548 L8.31,1.84393548 Z" id="Shape"></path>
                    <path d="M12.039,6.46122581 L9.078,6.46122581 L9.078,3.3075 L7.542,3.3075 L7.542,8.02233871 L12.039,8.02233871 L12.039,6.46122581 Z" id="Shape"></path>
                    <path d="M14.8586667,35.4862742 L14.0663333,35.1892258 C14.1286667,34.6022419 14.1086667,34.0040806 13.9996667,33.408629 L14.7646667,33.0502742 C15.243,32.8274032 15.4523333,32.2495645 15.232,31.7635161 L14.785,30.7785484 C14.565,30.2931774 13.9976667,30.0794516 13.52,30.3033387 L12.7543333,30.6627097 C12.38,30.1912258 11.945,29.7868065 11.466,29.4531774 L11.7586667,28.6490806 C11.9403333,28.148129 11.6873333,27.5885806 11.194,27.4033065 L10.1923333,27.027 C9.714,26.8485 9.143,27.1157419 8.967,27.6007742 L8.67433333,28.4055484 C8.09733333,28.3428871 7.508,28.3635484 6.922,28.4732903 L6.56933333,27.6956129 C6.34933333,27.2102419 5.781,26.9971935 5.30366667,27.2207419 L4.33366667,27.6746129 C3.85566667,27.8988387 3.646,28.4763387 3.866,28.961371 L4.219,29.7387097 C3.756,30.1200968 3.35733333,30.5610968 3.029,31.0485 L2.23833333,30.7514516 C1.76066667,30.5709194 1.189,30.8381613 1.01166667,31.3245484 L0.642333333,32.3430484 C0.553666667,32.5859032 0.564333333,32.8490806 0.670666667,33.0844839 C0.777666667,33.318871 0.968333333,33.4980484 1.20633333,33.5867903 L1.99866667,33.8848548 C1.936,34.4708226 1.95666667,35.0706774 2.06533333,35.6654516 L1.29933333,36.0238065 C0.822,36.2473548 0.612333333,36.8241774 0.832333333,37.3092097 L1.27966667,38.2955323 C1.49966667,38.7805645 2.067,38.9942903 2.545,38.7697258 L3.311,38.411371 C3.68533333,38.8825161 4.11933333,39.2872742 4.59966667,39.6205645 L4.307,40.425 C4.21766667,40.6678548 4.228,40.9306935 4.33533333,41.1660968 C4.441,41.4011613 4.632,41.5806774 4.87066667,41.6711129 L5.873,42.0464032 C6.11133333,42.1358226 6.37066667,42.1249839 6.60233333,42.0176129 C6.83366667,41.9092258 7.00966667,41.7151452 7.09733333,41.472629 L7.39033333,40.6675161 C7.96766667,40.7311935 8.55733333,40.7101935 9.14266667,40.6004516 L9.495,41.378129 C9.715,41.8628226 10.2833333,42.0765484 10.761,41.8523226 L11.7306667,41.3981129 C12.2096667,41.1745645 12.4183333,40.5980806 12.1976667,40.1120323 L11.845,39.3346935 C12.3086667,38.9533065 12.7073333,38.5126452 13.0346667,38.0252419 L13.8266667,38.3229677 C14.0663333,38.4134032 14.3253333,38.4022258 14.557,38.2938387 C14.7883333,38.1854516 14.964,37.9917097 15.052,37.749871 L15.4216667,36.731371 C15.605,36.2304194 15.3523333,35.6715484 14.8586667,35.4862742 L14.8586667,35.4862742 Z M9.61133333,38.0191452 C9.11133333,38.2528548 8.58033333,38.3710645 8.034,38.3710645 C6.56533333,38.3710645 5.22,37.4951613 4.60566667,36.141 C3.73566667,34.2205161 4.565,31.9393065 6.454,31.0552742 C6.954,30.8208871 7.48433333,30.7026774 8.03033333,30.7026774 C9.49866667,30.7026774 10.845,31.5775645 11.4593333,32.9324032 C12.3293333,34.8528871 11.5,37.1344355 9.61133333,38.0191452 L9.61133333,38.0191452 Z" id="Shape"></path>
                    <path d="M22.9576667,20.3750806 L22.9576667,3.9303871 L18.054,3.9303871 L18.054,5.01053226 L21.8946667,5.01053226 L21.8946667,20.3750806 L18.054,20.3750806 L18.054,21.7048548 L21.8946667,21.7048548 L21.8946667,38.4587903 L18.054,38.4587903 L18.054,39.5392742 L22.9576667,39.5392742 L22.9576667,21.7048548 L27.416,21.7048548 L27.3403333,20.3750806 L22.9576667,20.3750806 Z" id="Shape"></path>
                </g>
            </g>
            <g id="present3" transform="translate(551.000000, 81.000000)" fill="#4A4A4A" sketch:type="MSShapeGroup">
                <path d="M22.49,6.36 L22.006,4.828 C21.814,4.218 21.55,3.622 21.22,3.06 C20.13,1.208 18.86,0.404 18.37,0.356 C18.188,0.746 18.216,2.24 19.346,4.162 C20.422,5.994 21.676,6.798 22.18,6.864 L22.49,6.36 L22.49,6.36 Z M27.406,4.162 C28.534,2.24 28.562,0.746 28.382,0.356 C27.892,0.402 26.618,1.204 25.528,3.06 C25.196,3.624 24.934,4.22 24.742,4.828 L24.252,6.38 L24.578,6.884 C25.042,6.822 26.314,6.02 27.406,4.162 L27.406,4.162 Z M22.706,7.854 L26.746,7.854 L26.746,13.49 L36.562,13.49 L36.562,7.916 L27.344,7.916 C28.088,7.37 28.844,6.52 29.466,5.466 C30.806,3.182 31.002,0.81 29.9,0.164 C29.71,0.054 29.496,0 29.264,0 C28.142,0 26.594,1.234 25.478,3.124 C25.106,3.762 24.83,4.402 24.638,5.014 C24.446,4.402 24.174,3.762 23.798,3.124 C22.688,1.234 21.134,0 20.01,0 C19.784,0 19.568,0.054 19.376,0.164 C18.28,0.81 18.476,3.182 19.814,5.466 C20.436,6.52 21.196,7.37 21.938,7.916 L12.718,7.916 L12.718,13.49 L22.706,13.49 C22.706,13.49 22.706,7.854 22.706,7.854 L22.706,7.854 Z M25.892,5.41 C26.066,4.854 26.308,4.31 26.61,3.79 C27.606,2.092 28.774,1.358 29.228,1.316 C29.388,1.67 29.364,3.04 28.334,4.798 C27.33,6.502 26.166,7.234 25.744,7.29 L25.444,6.83 L25.892,5.41 L25.892,5.41 Z M20.948,4.798 C19.916,3.04 19.888,1.67 20.056,1.316 C20.504,1.358 21.67,2.094 22.668,3.79 C22.972,4.304 23.21,4.848 23.39,5.41 L23.83,6.812 L23.546,7.272 C23.082,7.214 21.936,6.476 20.948,4.798 L20.948,4.798 Z M27.08,15.272 L27.08,21.564 C27.808,21.932 28.01,22.596 28.01,22.596 C28.01,22.596 28.154,22.528 28.154,25.554 C28.154,28.582 27.506,28.69 27.08,28.786 L27.08,30.434 C27.08,30.434 32.004,28.842 34.936,25.134 C36,23.788 36.58,24.124 36.58,24.124 L36.56,15.272 C36.56,15.272 27.08,15.272 27.08,15.272 L27.08,15.272 Z M22.706,15.272 L12.716,15.272 L12.716,20.416 L22.704,20.416 L22.704,15.272 L22.706,15.272 L22.706,15.272 Z M0,20.528 L5.71,20.528 L5.71,39.854 L0,39.854 L0,20.528 L0,20.528 Z M36.052,26.758 C35.826,26.67 35.592,26.636 35.354,26.676 C33.56,27.006 30.844,33.678 23.776,31.752 C23.776,31.752 21.708,31.084 20.926,30.604 C20.234,30.222 18.766,29.348 17.566,28.436 L20.926,28.436 L24.704,28.436 C24.704,28.436 24.996,28.454 25.334,28.378 C25.796,28.272 26.35,27.99 26.35,27.226 L26.35,23.932 C26.35,23.932 26.13,22.836 25.334,22.434 C25.152,22.342 24.946,22.284 24.704,22.284 L20.926,22.284 L10.02,22.284 L8.122,22.284 L8.122,36.336 C8.122,36.336 19.326,39.852 23.278,39.852 C23.278,39.852 33.156,40.292 39.746,32.604 C39.748,32.606 38.03,27.526 36.052,26.758 L36.052,26.758 Z" id="Shape"></path>
            </g>
            <g id="moving10" transform="translate(750.000000, 351.000000)" fill="#4A4A4A" sketch:type="MSShapeGroup">
                <g id="Group">
                    <path d="M24.92875,15.6216111 L24.92875,1.16994444 C24.92875,0.755944444 24.6,0.419888889 24.195,0.419888889 L0.95625,0.419888889 C0.55125,0.419888889 0.2225,0.755944444 0.2225,1.16994444 L0.2225,15.6216111 C0.2225,16.0356111 0.55125,16.3716667 0.95625,16.3716667 L24.195,16.3716667 C24.6,16.3729444 24.92875,16.0368889 24.92875,15.6216111 L24.92875,15.6216111 Z M19.36375,6.39988889 L20.51,4.36822222 C20.625,4.16633333 20.91,4.16633333 21.0225,4.36822222 L22.17125,6.39988889 C22.285,6.60177778 22.14375,6.85477778 21.915,6.85477778 L21.43375,6.85477778 L21.43375,10.6433889 C21.43375,10.8107778 21.3,10.9462222 21.1375,10.9462222 L20.39625,10.9462222 C20.2325,10.9462222 20.1,10.8107778 20.1,10.6433889 L20.1,6.85477778 L19.61875,6.85477778 C19.3925,6.85477778 19.25,6.60177778 19.36375,6.39988889 L19.36375,6.39988889 Z M14.9225,6.39988889 L16.07125,4.36822222 C16.18375,4.16633333 16.46875,4.16633333 16.58375,4.36822222 L17.73125,6.39988889 C17.84625,6.60177778 17.7025,6.85477778 17.47375,6.85477778 L16.9925,6.85477778 L16.9925,10.6433889 C16.9925,10.8107778 16.86125,10.9462222 16.69625,10.9462222 L15.955,10.9462222 C15.7925,10.9462222 15.66,10.8107778 15.66,10.6433889 L15.66,6.85477778 L15.1775,6.85477778 C14.95,6.85477778 14.80875,6.60177778 14.9225,6.39988889 L14.9225,6.39988889 Z M9.97375,12.0796111 C10.05125,12.0962222 10.105,12.1639444 10.105,12.2444444 L10.105,12.6098889 C10.105,12.7146667 10.0225,12.799 9.92,12.799 L4.45375,12.799 C4.36375,12.799 4.28875,12.7236111 4.28875,12.6303333 L4.28875,12.2444444 C4.28875,12.1639444 4.34375,12.0949444 4.42,12.0796111 L6.35125,11.6796667 L6.35125,10.0275 C4.7925,9.63905556 3.6325,8.21177778 3.6325,6.49955556 C3.6325,5.577 3.97875,4.74388889 4.53125,4.10372222 L9.86125,4.10372222 C10.41375,4.74516667 10.76125,5.57827778 10.76125,6.49955556 C10.76125,8.21177778 9.6,9.63905556 8.0425,10.0275 L8.0425,11.6796667 L9.97375,12.0796111 L9.97375,12.0796111 Z M22.735,12.6558889 C22.735,12.7389444 22.66875,12.8066667 22.5875,12.8066667 L14.4175,12.8066667 C14.33625,12.8066667 14.26875,12.7389444 14.26875,12.6558889 L14.26875,12.2022778 C14.26875,12.1192222 14.335,12.0515 14.4175,12.0515 L22.5875,12.0515 C22.66875,12.0515 22.735,12.1179444 22.735,12.2022778 L22.735,12.6558889 L22.735,12.6558889 Z" id="Shape"></path>
                    <path d="M39.27,17.5932222 L38.125,17.5932222 L38.125,11.0612222 C38.125,10.2945556 37.9025,9.5445 37.48125,8.90944444 L34.61875,4.57522222 C33.92,3.51594444 32.75125,2.88216667 31.50125,2.88216667 L27.0625,2.88216667 C26.54375,2.88216667 26.12125,3.3115 26.12125,3.84305556 L26.12125,16.8418889 C26.12125,17.2558889 25.7925,17.5919444 25.3875,17.5919444 L18.8525,17.5919444 C19.54125,18.2001667 20.01625,19.0498889 20.15375,20.0120556 L27.82,20.0120556 C28.09125,18.1030556 29.69875,16.6310556 31.6425,16.6310556 C33.58375,16.6310556 35.19,18.1030556 35.4625,20.0120556 L39.27,20.0120556 C39.53,20.0120556 39.74,19.7961111 39.74,19.5316111 L39.74,18.0736667 C39.74,17.8091667 39.52875,17.5932222 39.27,17.5932222 L39.27,17.5932222 Z M34.58375,9.77705556 L28.725,9.77705556 C28.465,9.77705556 28.25625,9.56238889 28.25625,9.29661111 L28.25625,5.97183333 C28.25625,5.70605556 28.465,5.49138889 28.725,5.49138889 L32.29375,5.49138889 C32.4475,5.49138889 32.59125,5.56677778 32.67875,5.69455556 L34.9675,9.01933333 C35.1875,9.33877778 34.96625,9.77705556 34.58375,9.77705556 L34.58375,9.77705556 Z" id="Shape"></path>
                    <path d="M31.64125,17.5932222 C30.025,17.5932222 28.71625,18.9323333 28.71625,20.5857778 C28.71625,22.2366667 30.025,23.5757778 31.64125,23.5757778 C33.2575,23.5757778 34.5675,22.2366667 34.5675,20.5857778 C34.56625,18.9323333 33.25625,17.5932222 31.64125,17.5932222 L31.64125,17.5932222 Z M31.64125,22.0795 C30.83375,22.0795 30.17875,21.4112222 30.17875,20.5857778 C30.17875,19.7590556 30.83375,19.0895 31.64125,19.0895 C32.44875,19.0895 33.105,19.7590556 33.105,20.5857778 C33.10375,21.4112222 32.4475,22.0795 31.64125,22.0795 L31.64125,22.0795 Z" id="Shape"></path>
                    <path d="M7.255,17.5932222 C6.995,17.5932222 6.785,17.8091667 6.785,18.0736667 L6.785,19.5328889 C6.785,19.7986667 6.99625,20.0133333 7.255,20.0133333 L12.51,20.0133333 C12.6475,19.0511667 13.1225,18.2001667 13.8125,17.5919444 L7.255,17.5919444 L7.255,17.5932222 Z" id="Shape"></path>
                    <path d="M16.33125,17.5932222 C14.71625,17.5932222 13.40625,18.9323333 13.40625,20.5857778 C13.40625,22.2366667 14.71625,23.5757778 16.33125,23.5757778 C17.9475,23.5757778 19.2575,22.2366667 19.2575,20.5857778 C19.2575,18.9323333 17.9475,17.5932222 16.33125,17.5932222 L16.33125,17.5932222 Z M16.33125,22.0795 C15.52375,22.0795 14.86875,21.4112222 14.86875,20.5857778 C14.86875,19.7590556 15.52375,19.0895 16.33125,19.0895 C17.13875,19.0895 17.79375,19.7590556 17.79375,20.5857778 C17.79375,21.4112222 17.13875,22.0795 16.33125,22.0795 L16.33125,22.0795 Z" id="Shape"></path>
                </g>
            </g>
            <g id="partnership" transform="translate(750.000000, 81.000000)" fill="#4A4A4A" sketch:type="MSShapeGroup">
                <g id="Group">
                    <path d="M33.6890909,10.7752353 C36.6690909,10.7752353 39.0672727,8.36452941 39.0672727,5.39035294 C39.0672727,2.41435294 36.6672727,0 33.6890909,0 C30.7272727,0 28.3272727,2.41252941 28.3272727,5.39035294 C28.3272727,8.36270588 30.7272727,10.7752353 33.6890909,10.7752353 L33.6890909,10.7752353 Z" id="Shape"></path>
                    <path d="M38.0018182,11.6523529 L29.3890909,11.6523529 C28.1109091,11.6523529 27.0345455,12.6425294 26.7036364,13.9737059 L21.5909091,24.4717647 C21.5181818,24.4662941 21.4563636,24.4298235 21.3818182,24.4298235 L19.4109091,24.4298235 C19.3381818,24.4298235 19.2745455,24.4681176 19.2054545,24.4717647 L14.0927273,13.9755294 C13.7636364,12.6443529 12.6890909,11.6523529 11.4090909,11.6523529 L2.79272727,11.6523529 C1.25272727,11.6523529 0,13.0692353 0,14.8070588 L0,31.5032941 L14.2036364,31.5032941 L14.2036364,22.0245882 L17.3054545,27.776 C17.6054545,28.7752941 18.4254545,29.5010588 19.4127273,29.5010588 L21.3836364,29.5010588 C22.3727273,29.5010588 23.1927273,28.7752941 23.4945455,27.776 L26.5945455,22.0245882 L26.5945455,31.5032941 L40.7981818,31.5032941 L40.7981818,14.8070588 C40.7963636,13.0692353 39.5418182,11.6523529 38.0018182,11.6523529 L38.0018182,11.6523529 Z" id="Shape"></path>
                    <path d="M7.10545455,10.7752353 C10.0672727,10.7752353 12.4672727,8.36452941 12.4672727,5.39035294 C12.4690909,2.41252941 10.0690909,0 7.10545455,0 C4.12909091,0 1.72909091,2.41252941 1.72909091,5.39035294 C1.72909091,8.36270588 4.12909091,10.7752353 7.10545455,10.7752353 L7.10545455,10.7752353 Z" id="Shape"></path>
                </g>
            </g>
            <g id="group12" transform="translate(951.000000, 81.000000)" fill="#4A4A4A" sketch:type="MSShapeGroup">
                <g id="Group">
                    <path d="M8.57142857,25.7142857 L8.57142857,11.4285714 C8.57142857,11.4285714 8.57857143,10.7857143 8.91285714,10 L2.85714286,10 C2.85714286,10 0,10 0,12.8571429 L0,22.8571429 C0,25.7142857 2.85714286,25.7142857 2.85714286,25.7142857 L2.85714286,40 L11.4285714,40 L11.4285714,28.5714286 C11.4285714,28.5714286 8.57142857,28.5714286 8.57142857,25.7142857 L8.57142857,25.7142857 Z" id="Shape"></path>
                    <path d="M8.57142857,8.57142857 C9.31428571,8.57142857 10.0014286,8.36571429 10.61,8.03428571 C10.6942857,7.98285714 10.7885714,7.93714286 10.8785714,7.88714286 C12.0657143,7.12571429 12.8571429,5.80142857 12.8571429,4.28571429 C12.8571429,1.91857143 10.9385714,0 8.57142857,0 C6.20428571,0 4.28571429,1.91857143 4.28571429,4.28571429 C4.28571429,6.65285714 6.20428571,8.57142857 8.57142857,8.57142857 L8.57142857,8.57142857 Z" id="Shape"></path>
                    <path d="M37.1428571,10 L31.0885714,10 C31.4214286,10.7857143 31.4285714,11.4285714 31.4285714,11.4285714 L31.4285714,25.7142857 C31.4285714,28.5714286 28.5714286,28.5714286 28.5714286,28.5714286 L28.5714286,40 L37.1428571,40 L37.1428571,25.7142857 C37.1428571,25.7142857 40,25.7142857 40,22.8571429 L40,12.8571429 C40,12.8571429 40,10 37.1428571,10 L37.1428571,10 Z" id="Shape"></path>
                    <path d="M29.1142857,7.88428571 C29.2071429,7.93428571 29.3057143,7.98142857 29.3914286,8.03428571 C30,8.36571429 30.6857143,8.57142857 31.4285714,8.57142857 C33.7957143,8.57142857 35.7142857,6.65285714 35.7142857,4.28571429 C35.7142857,1.91857143 33.7957143,0 31.4285714,0 C29.0614286,0 27.1428571,1.91857143 27.1428571,4.28571429 C27.1428571,5.79857143 27.9314286,7.12142857 29.1142857,7.88428571 L29.1142857,7.88428571 Z" id="Shape"></path>
                    <circle id="Oval" cx="20" cy="4.28571429" r="4.28571429"></circle>
                    <path d="M28.5714286,12.8571429 C28.5714286,12.8571429 28.5714286,10 25.7142857,10 L14.2857143,10 C14.2857143,10 11.4285714,10 11.4285714,12.8571429 L11.4285714,22.8571429 C11.4285714,25.7142857 14.2857143,25.7142857 14.2857143,25.7142857 L14.2857143,40 L25.7142857,40 L25.7142857,25.7142857 C25.7142857,25.7142857 28.5714286,25.7142857 28.5714286,22.8571429 L28.5714286,12.8571429 L28.5714286,12.8571429 Z" id="Shape"></path>
                </g>
            </g>
            <g id="files5" transform="translate(451.000000, 581.000000)" fill="#4A4A4A" sketch:type="MSShapeGroup">
                <g id="Group">
                    <path d="M32.8562963,0.2775 L10.7525926,0.2775 L0.331851852,11.4165 L0.331851852,41.0175 L32.8562963,41.0175 L32.8562963,0.2775 L32.8562963,0.2775 Z M9.83407407,4.962 L9.83407407,9.8985 L5.2162963,9.8985 L9.83407407,4.962 L9.83407407,4.962 Z M30.3392593,38.472 L2.84740741,38.472 L2.84740741,12.444 L12.3481481,12.444 L12.3481481,2.823 L30.3407407,2.823 L30.3407407,38.472 L30.3392593,38.472 Z" id="Shape"></path>
                    <rect id="Rectangle-path" x="5.92592593" y="19.5" width="21.3066667" height="2.868"></rect>
                    <rect id="Rectangle-path" x="5.92592593" y="25.5" width="21.3066667" height="2.868"></rect>
                    <rect id="Rectangle-path" x="5.92592593" y="31.5" width="21.3066667" height="2.868"></rect>
                    <path d="M34.2044444,6.96 L34.2044444,9.5055 L37.0103704,9.5055 L37.0103704,45.1545 L9.51703704,45.1545 L9.51703704,42.381 L7.00148148,42.381 L7.00148148,47.7 L39.5259259,47.7 L39.5259259,6.96 L34.2044444,6.96 Z" id="Shape"></path>
                </g>
            </g>
            <path d="M989.824434,581 L973.115783,581 C972.462953,581 971.937851,581.528406 971.937851,582.180028 L971.937851,589.738843 L959.307019,589.738843 C958.046301,589.738843 957.010289,590.535007 957.010289,591.504147 L954.108036,611.218674 L953.353498,611.218674 C952.052569,611.218674 951,612.280226 951,613.5811 L951,620.637574 C951,621.938449 952.052569,623 953.353498,623 L985.708769,623 C987.009698,623 988.062267,621.940818 988.062267,620.637574 L988.062267,613.5811 C988.062267,612.280226 987.009698,611.218674 985.708769,611.218674 L984.954231,611.218674 L982.054343,591.504147 C982.054343,591.421213 982.035421,591.340649 982.016498,591.257715 L989.824434,591.257715 C990.474898,591.257715 991,590.726939 991,590.077687 L991,582.180028 C991,581.528406 990.477263,581 989.824434,581 L989.824434,581 Z M962.587724,592.996953 C962.587724,592.622567 962.902312,592.319267 963.290225,592.319267 L976.609367,592.319267 C976.999645,592.319267 977.316599,592.622567 977.316599,592.996953 L977.316599,595.425726 C977.316599,595.800113 976.999645,596.110522 976.609367,596.110522 L963.290225,596.110522 C962.902312,596.110522 962.587724,595.802482 962.587724,595.425726 L962.587724,592.996953 L962.587724,592.996953 Z M974.147064,604.119549 L971.318136,604.119549 C970.681864,604.119549 970.168588,603.619577 970.168588,603.008237 L970.168588,600.283272 C970.168588,599.671932 970.684229,599.171961 971.318136,599.171961 L974.147064,599.171961 C974.783336,599.171961 975.296612,599.671932 975.296612,600.283272 L975.296612,603.008237 C975.298977,603.619577 974.783336,604.119549 974.147064,604.119549 L974.147064,604.119549 Z M975.298977,606.493822 L975.298977,609.221157 C975.298977,609.832496 974.783336,610.332468 974.149429,610.332468 L971.320501,610.332468 C970.684229,610.332468 970.170954,609.832496 970.170954,609.221157 L970.170954,606.493822 C970.170954,605.882482 970.686595,605.382511 971.320501,605.382511 L974.149429,605.382511 C974.783336,605.380141 975.298977,605.880113 975.298977,606.493822 L975.298977,606.493822 Z M967.741766,604.152722 L964.915203,604.152722 C964.278931,604.152722 963.760925,603.65275 963.760925,603.04141 L963.760925,600.316446 C963.760925,599.705106 964.281296,599.205134 964.915203,599.205134 L967.741766,599.205134 C968.380403,599.205134 968.893679,599.705106 968.893679,600.316446 L968.893679,603.04141 C968.896044,603.65275 968.380403,604.152722 967.741766,604.152722 L967.741766,604.152722 Z M968.896044,606.526996 L968.896044,609.25433 C968.896044,609.86567 968.380403,610.365642 967.744131,610.365642 L964.917568,610.365642 C964.281296,610.365642 963.76329,609.86567 963.76329,609.25433 L963.76329,606.526996 C963.76329,605.910917 964.283662,605.415684 964.917568,605.415684 L967.744131,605.415684 C968.380403,605.413315 968.896044,605.908547 968.896044,606.526996 L968.896044,606.526996 Z M985.242801,613.057433 C985.893265,613.057433 986.423097,613.585839 986.423097,614.239831 L986.423097,615.929309 C986.423097,616.5833 985.893265,617.109337 985.242801,617.109337 L953.819467,617.109337 C953.169002,617.109337 952.641535,616.58567 952.641535,615.929309 L952.641535,614.239831 C952.641535,613.588209 953.169002,613.057433 953.819467,613.057433 L985.242801,613.057433 L985.242801,613.057433 Z M988.892496,588.22945 C988.892496,588.883441 988.365029,589.409478 987.714564,589.409478 L975.228017,589.409478 C974.572822,589.409478 974.050086,588.885811 974.050086,588.22945 L974.050086,584.033004 C974.050086,583.379013 974.572822,582.852976 975.228017,582.852976 L987.714564,582.852976 C988.365029,582.852976 988.892496,583.376643 988.892496,584.033004 L988.892496,588.22945 L988.892496,588.22945 Z" id="Shape" fill="#4A4A4A" sketch:type="MSShapeGroup"></path>
            <text id="©-http://www.busines" sketch:type="MSTextLayer" font-family="Georgia" font-size="13" font-weight="normal" fill="#9B9B9B">
                <tspan x="2" y="789">© http://www.businessmodelgeneration.com   </tspan>
                <tspan x="274.174805" y="789">Icons from http://www.flaticon.com</tspan>
            </text>
            <g id="On" transform="translate(800.000000, 0.000000)">
                <rect id="Rectangle-5" stroke="#4A4A4A" stroke-width="3" fill="#FFFFFF" sketch:type="MSShapeGroup" x="0" y="0" width="200" height="30"></rect>
                <text id="On:" sketch:type="MSTextLayer" font-family="Georgia" font-size="14" font-weight="normal" fill="#4A4A4A">
                    <tspan x="9" y="20">On:</tspan>
                </text>
            </g>
            <g id="Author" transform="translate(596.000000, 0.000000)">
                <rect id="Rectangle-5" stroke="#4A4A4A" stroke-width="3" fill="#FFFFFF" sketch:type="MSShapeGroup" x="0" y="0" width="200" height="66"></rect>
                <text id="Author:" sketch:type="MSTextLayer" font-family="Georgia" font-size="14" font-weight="normal" fill="#4A4A4A">
                    <tspan x="11" y="21.4">Author:</tspan>
                </text>
            </g>
            <g id="Business-Model-Canvas-IDEA">
                <rect id="Rectangle-5" stroke="#4A4A4A" stroke-width="3" fill="#FFFFFF" sketch:type="MSShapeGroup" x="0" y="0" width="591" height="66"></rect>
                <text id="Business-Model-Canva" sketch:type="MSTextLayer" font-family="Georgia" font-size="18" font-weight="normal" fill="#4A4A4A">
                    <tspan x="20.595" y="29">Business Model Canvas IDEA:</tspan>
                </text>
            </g>
            <g id="Iteration" transform="translate(800.000000, 36.000000)">
                <rect id="Rectangle-6" stroke="#4A4A4A" stroke-width="3" fill="#FFFFFF" sketch:type="MSShapeGroup" x="0" y="0" width="200" height="30"></rect>
                <text id="Iteration:" sketch:type="MSTextLayer" font-family="Georgia" font-size="14" font-weight="normal" fill="#4A4A4A">
                    <tspan x="9" y="20">Iteration:</tspan>
                </text>
            </g>
        </g>
    </g>
</svg>